HIERARCHY
ROOT Hips
{
 OFFSET 0.000000 0.000000 0.000000
 CHANNELS 6 Xposition Yposition Zposition Yrotation Xrotation Zrotation
 JOINT Chest
 {
  OFFSET 0.000000 10.932484 0.001155
  CHANNELS 3 Yrotation Xrotation Zrotation
  JOINT Chest2
  {
   OFFSET 0.000000 12.093805 -0.002099
   CHANNELS 3 Yrotation Xrotation Zrotation
   JOINT Chest3
   {
    OFFSET 0.000000 10.927800 0.000000
    CHANNELS 3 Yrotation Xrotation Zrotation
    JOINT Chest4
    {
     OFFSET 0.000000 10.927800 0.000000
     CHANNELS 3 Yrotation Xrotation Zrotation
     JOINT Neck
     {
      OFFSET 0.000000 15.355144 0.000000
      CHANNELS 3 Yrotation Xrotation Zrotation
      JOINT Head
      {
       OFFSET 0.000000 10.170446 -0.004991
       CHANNELS 3 Yrotation Xrotation Zrotation
       End Site
       {
        OFFSET 0.000000 19.463738 -0.002607
       }
      }
     }
     JOINT RightCollar
     {
      OFFSET -3.333126 8.566406 0.000000
      CHANNELS 3 Yrotation Xrotation Zrotation
      JOINT RightShoulder
      {
       OFFSET -15.529370 0.000000 0.000000
       CHANNELS 3 Yrotation Xrotation Zrotation
       JOINT RightElbow
       {
        OFFSET 0.000000 -33.145213 0.000000
        CHANNELS 3 Yrotation Xrotation Zrotation
        JOINT RightWrist
        {
         OFFSET 0.000000 -27.120720 -0.000000
         CHANNELS 3 Yrotation Xrotation Zrotation
         End Site
         {
          OFFSET 0.000000 -20.306483 0.000000
         }
        }
       }
      }
     }
     JOINT LeftCollar
     {
      OFFSET 3.333126 8.566406 0.000000
      CHANNELS 3 Yrotation Xrotation Zrotation
      JOINT LeftShoulder
      {
       OFFSET 15.529370 0.000000 0.000000
       CHANNELS 3 Yrotation Xrotation Zrotation
       JOINT LeftElbow
       {
        OFFSET 0.000000 -33.145213 0.000000
        CHANNELS 3 Yrotation Xrotation Zrotation
        JOINT LeftWrist
        {
         OFFSET 0.000000 -27.120720 -0.000000
         CHANNELS 3 Yrotation Xrotation Zrotation
         End Site
         {
          OFFSET 0.000000 -20.306483 0.000000
         }
        }
       }
      }
     }
    }
   }
  }
 }
 JOINT RightHip
 {
  OFFSET -8.869179 -0.005661 -0.000578
  CHANNELS 3 Yrotation Xrotation Zrotation
  JOINT RightKnee
  {
   OFFSET 0.000000 -45.835245 0.000547
   CHANNELS 3 Yrotation Xrotation Zrotation
   JOINT RightAnkle
   {
    OFFSET 0.000000 -44.890236 0.000924
    CHANNELS 3 Yrotation Xrotation Zrotation
    JOINT RightToe
    {
     OFFSET 0.000000 -8.082775 18.351045
     CHANNELS 3 Yrotation Xrotation Zrotation
     End Site
     {
      OFFSET 0.000000 -1.681997 7.345339
     }
    }
   }
  }
 }
 JOINT LeftHip
 {
  OFFSET 8.869179 -0.005661 -0.000578
  CHANNELS 3 Yrotation Xrotation Zrotation
  JOINT LeftKnee
  {
   OFFSET 0.000000 -45.835245 0.000547
   CHANNELS 3 Yrotation Xrotation Zrotation
   JOINT LeftAnkle
   {
    OFFSET 0.000000 -44.890236 0.000924
    CHANNELS 3 Yrotation Xrotation Zrotation
    JOINT LeftToe
    {
     OFFSET 0.000000 -8.082775 18.351045
     CHANNELS 3 Yrotation Xrotation Zrotation
     End Site
     {
      OFFSET 0.000000 -1.681997 7.345339
     }
    }
   }
  }
 }
}
MOTION
Frames: 10
Frame Time: 0.008333
289.936338 53.313420 183.984870 -30.570896 -30.296095 -1.334586 0.216588 17.400776 -0.744573 0.200086 7.715283 -0.547837 0.200086 7.715283 -0.547837 0.156790 5.786289 -0.412794 -4.413441 12.787651 -0.030410 -8.377928 -12.308511 1.768150 -4.266500 0.021267 5.132006 23.669786 -0.819247 -35.546714 30.636264 -62.385679 7.569852 45.629780 -26.530460 -62.732091 0.203639 -1.046010 -4.419461 -25.901011 -2.275644 48.228590 -13.077753 -59.486906 -18.779896 -41.787733 -52.798027 52.614867 -26.913500 -55.974221 16.526434 -158.813494 74.531294 -166.084148 2.149891 -16.381094 -5.385291 -0.155392 0.795284 -0.028944 20.643651 -58.887084 -6.649446 174.730867 67.927894 178.767759 5.952278 -23.168343 5.983616 -0.010598 -0.330737 -0.059459
289.934951 53.320362 183.980737 -30.603716 -30.294334 -1.317058 0.209926 17.402119 -0.722938 0.195753 7.715792 -0.540489 0.195753 7.715792 -0.540489 0.153453 5.786677 -0.407237 -4.437090 12.767641 -0.062504 -8.410800 -12.346542 1.718412 -4.331797 0.049405 5.083560 23.673801 -0.877318 -35.482984 30.680653 -62.422486 7.536811 45.685583 -26.517180 -62.783719 0.264277 -1.064630 -4.409365 -25.917694 -2.290289 48.137209 -13.018748 -59.427061 -18.865096 -41.972706 -52.798393 52.831063 -26.898678 -55.989099 16.515599 -158.877584 74.534053 -166.125639 2.147761 -16.355248 -5.413708 -0.151123 0.791952 -0.035489 20.673707 -58.893179 -6.672236 174.681946 67.921100 178.726658 6.034752 -23.172800 5.945140 -0.009195 -0.334007 -0.053672
289.932834 53.326859 183.975373 -30.629242 -30.290939 -1.309269 0.210900 17.407097 -0.690306 0.193392 7.718260 -0.531297 0.193392 7.718260 -0.531297 0.151570 5.788533 -0.400324 -4.466210 12.747527 -0.093573 -8.454491 -12.384374 1.672879 -4.393094 0.075063 5.045834 23.675699 -0.921128 -35.437199 30.741538 -62.462516 7.479561 45.720610 -26.514822 -62.832975 0.320608 -1.082282 -4.404699 -25.948938 -2.304717 48.058205 -12.960296 -59.391763 -18.924052 -42.054712 -52.803952 52.960196 -26.910840 -55.997831 16.527489 -158.890259 74.537690 -166.128198 2.174448 -16.325772 -5.441560 -0.139413 0.790228 -0.041504 20.685234 -58.909199 -6.668041 174.660534 67.914893 178.717786 5.986213 -23.160609 5.954698 -0.009686 -0.336171 -0.048714
289.924552 53.332343 183.965989 -30.653011 -30.294446 -1.301076 0.206691 17.413045 -0.660534 0.189232 7.719961 -0.522712 0.189232 7.719961 -0.522712 0.148347 5.789815 -0.393842 -4.492745 12.727357 -0.125096 -8.493079 -12.422500 1.625426 -4.441073 0.098881 5.012900 23.682926 -0.947493 -35.406818 30.774787 -62.515042 7.433933 45.749524 -26.499479 -62.892479 0.379495 -1.096510 -4.404304 -25.997615 -2.315891 47.994535 -12.850783 -59.318440 -19.059397 -42.208987 -52.796100 53.166262 -26.932073 -56.000964 16.543470 -158.889742 74.537354 -166.126748 2.277718 -16.285161 -5.488841 -0.122099 0.785430 -0.045051 20.697954 -58.912713 -6.668766 174.623951 67.911902 178.695061 6.042695 -23.163923 5.918923 -0.009551 -0.333844 -0.042064
289.920065 53.336908 183.957716 -30.675917 -30.293062 -1.291095 0.207269 17.417317 -0.634424 0.186467 7.722927 -0.514748 0.186467 7.722927 -0.514748 0.146178 5.792044 -0.387843 -4.521660 12.709181 -0.155494 -8.536535 -12.456713 1.580947 -4.492803 0.119208 4.988197 23.692198 -0.968281 -35.386859 30.795046 -62.569219 7.395256 45.763871 -26.487450 -62.933214 0.423666 -1.117169 -4.394832 -26.044794 -2.306149 47.930697 -12.734626 -59.287929 -19.164310 -42.261993 -52.783805 53.263456 -26.952289 -56.004255 16.564504 -158.826496 74.539479 -166.058595 2.246102 -16.263020 -5.486271 -0.121777 0.788014 -0.058494 20.707117 -58.923480 -6.671546 174.569961 67.907056 178.649915 6.076223 -23.160528 5.890957 -0.011254 -0.335094 -0.037058
289.919254 53.341475 183.951524 -30.698999 -30.301087 -1.271658 0.199672 17.420134 -0.616875 0.181034 7.724827 -0.507437 0.181034 7.724827 -0.507437 0.142018 5.793475 -0.382299 -4.543891 12.695257 -0.187695 -8.566280 -12.483567 1.529975 -4.514191 0.131022 4.963258 23.677796 -0.970382 -35.375695 30.808076 -62.638997 7.368626 45.770488 -26.458720 -62.958178 0.484613 -1.123472 -4.390893 -26.109145 -2.306542 47.876936 -12.594817 -59.225114 -19.329220 -42.371052 -52.744910 53.415985 -26.951472 -56.008167 16.553379 -158.811737 74.541207 -166.039083 2.239688 -16.235000 -5.486470 -0.126082 0.788015 -0.072526 20.727138 -58.922675 -6.675263 174.551526 67.905693 178.637770 6.029811 -23.146278 5.899685 -0.012134 -0.336799 -0.031856
289.919873 53.345514 183.945042 -30.725286 -30.307998 -1.252544 0.196670 17.424758 -0.597629 0.177381 7.728250 -0.499789 0.177381 7.728250 -0.499789 0.139187 5.796048 -0.376527 -4.562582 12.684639 -0.217502 -8.590084 -12.504326 1.481844 -4.533463 0.141340 4.939975 23.650241 -0.969852 -35.367317 30.822866 -62.711667 7.338411 45.763221 -26.428956 -62.947420 0.522392 -1.133021 -4.388816 -26.145718 -2.299969 47.835761 -12.462404 -59.208024 -19.466253 -42.398117 -52.712628 53.470842 -26.943736 -56.015436 16.523972 -158.793625 74.544390 -166.011271 2.306238 -16.202875 -5.502766 -0.135241 0.791590 -0.087595 20.740637 -58.924199 -6.671964 174.543539 67.905411 178.632542 5.978249 -23.128553 5.910185 -0.014687 -0.339271 -0.027119
289.922034 53.348599 183.939203 -30.746353 -30.319991 -1.241431 0.194017 17.430123 -0.575121 0.173580 7.730940 -0.492906 0.173580 7.730940 -0.492906 0.136255 5.798070 -0.371324 -4.582957 12.676875 -0.242830 -8.618776 -12.519374 1.442706 -4.553058 0.144364 4.926496 23.622915 -0.961582 -35.366038 30.815371 -62.785759 7.328891 45.753099 -26.383379 -62.920478 0.565317 -1.141106 -4.386743 -26.210803 -2.296139 47.805725 -12.291963 -59.144836 -19.666564 -42.512565 -52.668725 53.603868 -26.937443 -56.012780 16.500027 -158.809137 74.552089 -166.015982 2.357757 -16.174609 -5.521993 -0.132131 0.798432 -0.093600 20.745841 -58.925519 -6.656517 174.533400 67.903577 178.631527 5.858477 -23.105927 5.946401 -0.015935 -0.339302 -0.024058
289.925343 53.351268 183.933920 -30.765458 -30.330764 -1.221534 0.185446 17.436889 -0.566681 0.168955 7.734382 -0.488663 0.168955 7.734382 -0.488663 0.132741 5.800656 -0.368088 -4.599098 12.674345 -0.264796 -8.640502 -12.524721 1.407822 -4.563421 0.156244 4.912906 23.591843 -0.973335 -35.358377 30.815988 -62.843286 7.323258 45.729892 -26.340917 -62.876107 0.610986 -1.143254 -4.382679 -26.272470 -2.292954 47.787593 -12.136272 -59.112140 -19.827941 -42.543102 -52.618093 53.659112 -26.928847 -56.016362 16.467621 -158.830416 74.556864 -166.028881 2.382725 -16.148980 -5.533090 -0.137986 0.802798 -0.100994 20.761843 -58.919763 -6.664070 174.531312 67.903178 178.620337 5.899330 -23.097444 5.932592 -0.014820 -0.342424 -0.020496
289.927388 53.353319 183.928410 -30.782673 -30.348947 -1.203950 0.182876 17.442016 -0.552781 0.165867 7.736998 -0.482838 0.165867 7.736998 -0.482838 0.130356 5.802623 -0.363687 -4.617788 12.673755 -0.287513 -8.666648 -12.526382 1.372418 -4.587394 0.171101 4.894971 23.556920 -0.984008 -35.354815 30.824403 -62.906350 7.321293 45.712925 -26.286965 -62.827764 0.649926 -1.142943 -4.380360 -26.343833 -2.293577 47.770320 -11.963658 -59.044661 -20.042898 -42.642535 -52.562143 53.783170 -26.914376 -56.013121 16.428512 -158.849619 74.560458 -166.038626 2.429522 -16.122709 -5.554549 -0.139101 0.806230 -0.102491 20.778810 -58.906233 -6.672755 174.498928 67.903359 178.588821 5.916647 -23.089204 5.922043 -0.013524 -0.342858 -0.018057
